<?xml version="1.0" standalone="no"?>
<!DOCTYPE svg PUBLIC "-//W3C//DTD SVG 20010904//EN"
 "http://www.w3.org/TR/2001/REC-SVG-20010904/DTD/svg10.dtd">
<svg version="1.0" xmlns="http://www.w3.org/2000/svg"
 width="626.000000pt" height="417.000000pt" viewBox="0 0 626.000000 417.000000"
 preserveAspectRatio="xMidYMid meet">

<g transform="translate(0.000000,417.000000) scale(0.100000,-0.100000)"
fill="#000000" stroke="none">
<path d="M3375 3144 c-273 -12 -642 -50 -814 -85 -156 -32 -198 -57 -416 -249
l-121 -106 -164 -22 c-91 -12 -239 -40 -329 -62 l-163 -40 -117 16 c-65 9
-141 14 -172 10 -128 -13 -238 -79 -348 -208 -162 -189 -256 -414 -283 -671
-25 -242 42 -413 176 -449 36 -9 47 -19 66 -55 30 -56 110 -129 176 -159 80
-38 142 -45 351 -39 155 4 203 8 247 24 55 19 153 79 176 106 11 13 106 15
681 15 l668 0 65 -49 c35 -27 91 -60 123 -72 56 -23 67 -24 348 -24 332 0 328
-1 430 96 l52 49 432 0 431 0 58 -47 c31 -25 82 -58 112 -72 54 -26 59 -26
280 -26 l225 0 48 28 c155 92 222 325 220 772 -1 230 -15 318 -67 431 -19 39
-51 90 -71 113 -46 51 -137 96 -235 116 -41 8 -109 32 -150 52 -64 31 -97 59
-229 189 -140 140 -247 232 -326 280 -47 28 -17 2 60 -51 39 -27 144 -122 235
-211 153 -150 241 -221 298 -239 13 -4 22 -9 19 -11 -2 -2 -87 -13 -188 -24
-213 -24 -304 -37 -269 -39 14 0 66 4 115 9 224 23 396 31 458 20 121 -22 213
-96 269 -215 44 -94 57 -191 58 -412 0 -202 -13 -277 -17 -93 -3 119 -25 245
-53 300 -36 70 -115 120 -190 120 -56 0 -126 -68 -155 -151 -19 -53 -47 -229
-75 -479 -11 -102 -23 -200 -26 -217 l-5 -33 -599 0 c-330 0 -600 3 -600 8 0
4 9 39 19 78 33 122 44 251 38 446 -4 148 -9 197 -27 258 -46 159 -123 256
-228 286 -46 14 -64 14 -120 4 -85 -16 -112 -30 -155 -81 -78 -91 -111 -226
-156 -649 -17 -157 -34 -300 -37 -317 l-5 -33 -1363 0 c-1468 0 -1403 -2
-1476 50 -16 11 -43 50 -61 85 -29 59 -32 76 -37 184 -3 88 0 145 13 218 27
150 25 148 75 62 140 -241 256 -312 580 -356 179 -25 892 -24 1130 0 300 31
443 65 555 132 70 42 201 167 288 275 l60 75 -184 12 c-101 6 -440 28 -754 48
l-570 38 -230 -22 c-126 -13 -374 -40 -550 -62 -176 -21 -330 -39 -342 -39
l-23 0 20 50 c38 97 145 289 161 290 4 0 10 -31 14 -69 l7 -69 176 -6 c98 -4
231 -9 297 -11 l120 -5 -155 53 c-242 84 -407 162 -398 187 8 24 140 126 198
154 71 34 88 35 375 25 98 -3 120 -1 200 24 49 15 93 27 97 27 5 0 -1 -19 -13
-42 -27 -53 -35 -141 -19 -209 11 -45 65 -186 76 -198 1 -2 39 18 84 43 249
144 576 291 875 392 231 79 209 77 491 54 136 -12 250 -22 252 -24 1 -2 -10
-6 -25 -10 -53 -12 -713 -230 -708 -234 2 -2 46 10 97 27 146 47 459 137 616
175 288 71 374 70 642 -6 58 -16 159 -37 224 -47 l119 -17 27 -70 c14 -38 29
-77 33 -88 6 -15 17 1 51 72 l44 90 79 6 c308 24 510 49 526 65 14 14 -226
248 -312 305 -180 119 -333 147 -415 76 -46 -41 -87 -123 -135 -270 -23 -69
-43 -130 -45 -136 -3 -9 -21 -9 -70 1 -37 6 -68 14 -70 16 -8 7 89 232 129
299 44 74 103 141 151 170 18 12 61 25 96 29 l63 7 -110 8 c-60 4 -171 11
-245 16 -154 11 -621 19 -755 14z m526 -962 c240 -153 264 -783 37 -965 -52
-41 -131 -49 -182 -18 -75 47 -146 162 -183 301 -24 90 -24 337 0 433 31 124
86 219 152 258 47 29 121 25 176 -9z m1705 -181 c94 -58 154 -232 154 -451 -1
-297 -134 -479 -261 -356 -41 39 -94 152 -108 230 -16 84 -13 278 4 361 20 94
67 188 108 214 40 26 63 26 103 2z"/>
<path d="M3772 2166 c-18 -9 -35 -22 -38 -30 -3 -7 10 -76 29 -152 34 -139 34
-139 16 -179 -23 -49 -25 -142 -5 -190 13 -29 20 -35 46 -35 26 0 33 6 47 37
21 50 13 155 -15 192 -19 26 -19 27 6 188 14 90 23 165 20 168 -13 14 -76 14
-106 1z"/>
<path d="M3891 1992 c-13 -82 -22 -156 -20 -166 3 -12 25 10 75 77 l72 95 -28
48 c-15 27 -39 59 -52 72 l-25 22 -22 -148z"/>
<path d="M3660 2061 c-42 -67 -86 -194 -68 -200 7 -2 45 -21 85 -41 l72 -38 9
27 c6 19 -1 62 -25 161 -19 74 -36 136 -37 138 -2 1 -18 -20 -36 -47z"/>
<path d="M3962 1863 c-54 -69 -72 -98 -72 -122 0 -35 6 -36 119 -25 l61 7 -1
46 c0 25 -8 77 -17 115 l-17 70 -73 -91z"/>
<path d="M3571 1701 c2 -66 7 -122 10 -125 8 -8 139 70 157 92 6 9 12 28 12
43 0 25 -9 32 -85 69 -47 22 -88 40 -91 40 -3 0 -5 -54 -3 -119z"/>
<path d="M3950 1681 l-55 -6 -3 -40 c-2 -36 5 -48 72 -133 l75 -92 16 72 c9
40 17 102 18 138 l2 65 -35 1 c-19 1 -60 -2 -90 -5z"/>
<path d="M3665 1575 c-38 -24 -71 -48 -73 -53 -5 -17 47 -141 79 -189 39 -56
37 -60 69 123 22 121 22 165 3 163 -4 -1 -39 -20 -78 -44z"/>
<path d="M3854 1540 c4 -19 14 -73 22 -120 8 -47 19 -109 25 -139 l11 -53 35
33 c45 45 76 95 67 111 -16 28 -133 174 -150 188 -16 14 -17 13 -10 -20z"/>
<path d="M3780 1493 c-6 -38 -18 -101 -26 -142 -8 -40 -14 -79 -14 -86 0 -16
78 -55 110 -55 22 0 23 2 17 53 -8 65 -35 244 -42 275 -11 45 -32 24 -45 -45z"/>
<path d="M5512 1974 c-28 -20 -28 -47 2 -166 23 -92 24 -96 8 -155 l-17 -59
-50 22 c-27 13 -54 23 -59 23 -11 1 0 -179 12 -191 9 -9 58 40 94 92 l17 25 0
-28 c1 -21 -13 -43 -49 -81 -27 -29 -50 -61 -50 -72 0 -23 41 -110 68 -143
l19 -24 7 144 c4 79 10 146 12 149 12 12 23 -30 19 -70 -3 -25 -7 -90 -8 -145
l-2 -100 43 -3 c40 -3 43 -1 37 17 -3 11 -17 77 -30 147 -20 102 -22 130 -12
142 6 8 17 27 24 41 10 22 12 23 12 6 2 -28 108 -188 116 -174 4 6 10 57 12
114 l6 103 -24 -4 c-13 -2 -45 -5 -70 -7 l-47 -4 -6 55 c-4 30 -13 60 -21 66
-12 9 -13 28 -5 116 15 167 14 180 -13 180 -12 0 -33 -7 -45 -16z"/>
<path d="M5600 1918 c0 -29 -5 -87 -10 -128 -6 -41 -7 -77 -2 -82 8 -8 102
123 102 142 0 29 -62 120 -82 120 -4 0 -8 -24 -8 -52z"/>
<path d="M5432 1842 c-12 -38 -22 -78 -22 -90 0 -12 -4 -22 -9 -22 -4 0 -6
-10 -4 -23 3 -14 22 -31 53 -48 54 -29 60 -25 60 34 0 28 -44 204 -53 213 -2
2 -13 -27 -25 -64z"/>
<path d="M5656 1735 c-38 -51 -47 -71 -44 -97 2 -18 6 -32 11 -30 4 1 32 2 62
2 l55 0 0 34 c0 43 -18 138 -28 148 -5 5 -30 -21 -56 -57z"/>
<path d="M5591 1463 c1 -51 44 -244 54 -246 15 -1 55 62 55 87 0 20 -95 186
-106 186 -2 0 -4 -12 -3 -27z"/>
<path d="M4508 3093 c7 -3 16 -2 19 1 4 3 -2 6 -13 5 -11 0 -14 -3 -6 -6z"/>
<path d="M4560 3083 c8 -3 43 -18 78 -34 34 -15 62 -25 62 -23 0 8 -128 64
-142 63 -8 0 -8 -3 2 -6z"/>
<path d="M3165 2466 c-192 -57 -642 -195 -815 -252 l-105 -34 60 4 c33 3 205
8 382 12 l322 7 85 92 c46 50 119 118 163 150 87 66 99 75 93 74 -3 0 -86 -25
-185 -53z"/>
<path d="M4210 2274 c0 -5 9 -56 19 -114 52 -286 50 -539 -5 -724 -3 -12 17
13 46 54 77 111 136 180 193 227 54 45 233 128 509 238 81 32 147 60 145 61
-1 2 -41 -6 -87 -16 -151 -34 -385 -71 -468 -73 -68 -2 -85 1 -109 19 -15 11
-76 92 -135 179 -60 87 -108 155 -108 149z"/>
<path d="M4627 1510 c-153 -83 -282 -150 -287 -150 -5 0 -11 -4 -14 -8 -3 -5
120 16 272 45 l277 54 135 -12 c74 -6 141 -12 148 -15 6 -2 12 -2 12 0 0 7
-251 236 -258 236 -4 0 -132 -68 -285 -150z"/>
<path d="M2995 1449 c-543 -32 -992 -49 -1330 -49 -261 0 -415 5 -897 28 -160
8 -170 2 -76 -38 103 -44 171 -49 758 -56 587 -7 1109 5 1370 31 146 14 247
37 330 74 l45 20 -35 -1 c-19 -1 -93 -4 -165 -9z"/>
</g>
</svg>
